<?xml version="1.0" standalone="no"?>
<!DOCTYPE svg PUBLIC "-//W3C//DTD SVG 20010904//EN"
 "http://www.w3.org/TR/2001/REC-SVG-20010904/DTD/svg10.dtd">
<svg version="1.0" xmlns="http://www.w3.org/2000/svg"
 width="760.000000pt" height="760.000000pt" viewBox="0 0 760.000000 760.000000"
 preserveAspectRatio="xMidYMid meet">
<metadata>
Created by potrace 1.11, written by Peter Selinger 2001-2013
</metadata>
<g transform="translate(0.000000,760.000000) scale(0.100000,-0.100000)"
fill="#000000" stroke="none">
<path d="M3522 7565 c2 -19 0 -35 -5 -35 -4 0 -5 -5 -2 -11 4 -6 7 -26 7 -45
0 -19 5 -35 12 -35 6 -1 76 -2 156 -3 l145 -1 2 -143 c1 -79 4 -146 7 -149 6
-6 435 -11 454 -5 8 3 12 29 12 83 l0 79 -27 0 c-16 1 -84 1 -153 1 l-125 0 0
147 -1 147 -243 3 -243 2 4 -35z"/>
<path d="M3238 7542 c-14 -3 -16 -28 -16 -237 l0 -234 144 1 c80 0 147 -1 149
-4 9 -9 10 -158 2 -158 -4 0 -5 -5 -1 -11 4 -7 7 -41 8 -78 l1 -66 70 -1 c39
0 75 1 81 3 7 3 10 82 10 242 l0 238 -130 1 c-72 0 -140 0 -151 1 -19 1 -20 7
-19 151 1 82 -1 150 -5 151 -20 3 -129 4 -143 1z"/>
<path d="M4472 7178 c0 -73 -1 -145 -1 -160 l-1 -28 -148 0 -148 0 1 -227 c0
-221 4 -261 27 -247 6 4 39 6 73 5 l63 -2 0 147 c0 80 3 149 7 152 4 4 68 8
143 8 75 1 140 2 143 3 3 1 6 109 6 241 l-1 240 -82 0 -82 0 0 -132z"/>
<path d="M2571 7214 l2 -84 141 1 c77 0 149 0 159 0 15 -1 17 -17 17 -181 l0
-180 235 1 235 1 1 32 c1 17 0 40 -1 51 -1 11 -3 34 -4 50 l-1 30 -145 0 c-80
0 -147 3 -150 7 -3 4 -5 85 -5 181 l1 173 -244 1 -243 0 2 -83z"/>
<path d="M2595 6820 c0 -82 -2 -151 -5 -151 -3 -1 -70 -3 -150 -4 -80 -2 -148
-3 -151 -4 -11 -2 -16 -57 -7 -80 4 -12 4 -21 0 -21 -8 0 -7 -124 2 -146 3 -7
2 -14 -2 -14 -4 0 -6 -37 -4 -82 1 -46 3 -95 3 -110 l0 -28 82 0 82 0 0 161 0
160 145 -1 c80 -1 150 -1 156 -1 8 1 12 69 12 236 l1 235 -83 0 -82 0 1 -150z"/>
<path d="M3838 6960 c0 -3 -2 -68 -3 -145 -2 -77 -3 -147 -4 -155 -1 -13 -22
-16 -146 -15 -91 0 -146 -3 -148 -10 -2 -5 -4 -90 -6 -187 l-3 -178 81 0 c70
0 81 2 82 18 1 9 3 51 4 92 2 41 3 81 4 87 1 9 37 12 140 12 76 -1 143 1 149
5 5 3 9 102 9 243 l0 238 -78 0 c-44 0 -80 -2 -81 -5z"/>
<path d="M2919 6639 c0 -11 -1 -47 -2 -81 l-1 -63 135 -2 c74 -1 145 -2 159
-2 l26 -1 -1 -97 c-1 -54 0 -103 2 -108 3 -10 149 -12 159 -2 4 4 7 174 5 333
l-1 42 -240 0 c-228 0 -240 -1 -241 -19z"/>
<path d="M4470 6509 c0 -148 0 -149 -22 -150 -13 0 -90 0 -173 0 -82 0 -157
-2 -166 -5 -13 -4 -16 -19 -16 -83 l0 -77 266 1 c146 1 268 3 271 3 3 1 5 64
5 140 -1 75 2 142 6 147 4 6 56 10 123 9 100 -1 116 1 117 15 4 47 5 127 2
137 -3 7 -72 11 -208 11 l-205 0 0 -148z"/>
<path d="M4779 6352 c-1 -4 -2 -74 -3 -157 l-1 -150 -100 -2 c-55 -1 -122 -2
-150 -3 l-50 0 2 -227 c0 -126 2 -231 2 -235 2 -14 161 -9 162 5 0 6 1 75 2
152 l2 140 140 1 c77 1 145 2 150 3 6 1 9 86 7 240 l-3 239 -79 0 c-44 0 -80
-3 -81 -6z"/>
<path d="M2596 6330 c-2 -8 -3 -75 -2 -147 l2 -133 -31 -1 c-16 -1 -73 -1
-125 -1 -52 0 -98 -5 -101 -10 -4 -7 -4 -109 0 -149 1 -3 95 -6 210 -6 l209 0
0 128 c1 71 1 138 1 149 1 19 10 20 184 22 l182 3 1 78 c1 42 -1 78 -5 78 -3
1 -122 3 -263 3 -225 2 -258 0 -262 -14z"/>
<path d="M3819 6242 c-2 -129 1 -336 6 -341 4 -3 112 -6 241 -6 228 0 234 0
235 20 0 11 1 47 1 80 l1 60 -159 5 -159 5 0 100 -1 100 -82 2 -82 2 -1 -27z"/>
<path d="M3231 6110 c-5 -3 -8 -124 -7 -269 l1 -265 40 1 c22 1 59 1 81 2 l41
1 -1 176 c0 97 1 180 4 185 3 4 73 10 155 11 l150 3 0 78 c1 46 -3 77 -10 78
-36 4 -448 4 -454 -1z"/>
<path d="M2884 5965 c1 -31 -2 -59 -6 -62 -5 -2 -5 -9 -1 -16 6 -9 8 -84 4
-155 -1 -16 -13 -17 -128 -17 -71 0 -138 -1 -149 -3 -21 -4 -21 -7 -20 -240
l1 -237 82 -3 83 -3 -1 103 c0 57 0 129 0 160 l1 57 148 3 147 3 0 230 0 230
-82 3 -81 3 2 -56z"/>
<path d="M3536 5780 c-2 -3 -3 -111 -2 -240 l1 -235 150 -1 149 0 1 -154 0
-154 75 1 c41 1 78 2 81 2 3 1 5 106 5 234 l-1 232 -144 3 c-80 1 -146 4 -149
6 -2 3 -5 74 -5 158 l-2 153 -78 0 c-43 1 -80 -2 -81 -5z"/>
<path d="M3864 5771 c-2 -2 -4 -40 -4 -83 l0 -78 153 0 153 0 0 -180 c-1 -152
1 -181 14 -184 8 -2 116 -4 240 -3 l225 2 3 82 3 82 -108 -1 c-59 0 -132 1
-161 1 l-53 1 1 176 c1 97 -1 179 -5 182 -7 7 -454 10 -461 3z"/>
<path d="M2927 5402 c-14 -3 -17 -17 -17 -83 0 -68 2 -79 18 -80 9 0 78 -1
152 -2 l135 -2 0 -148 0 -147 243 0 242 0 0 80 c0 69 -2 80 -17 81 -10 1 -81
2 -158 3 l-140 1 -1 143 c-1 79 -4 146 -7 149 -7 6 -421 10 -450 5z"/>
<path d="M3014 4551 c-4 -5 -665 -12 -804 -9 -25 0 -83 0 -130 -1 -259 -4
-726 -3 -865 2 -187 7 -221 -1 -248 -59 -22 -46 -21 -66 3 -92 26 -27 36 -28
43 -2 3 12 14 20 27 20 16 0 20 -4 16 -16 -7 -17 11 -47 23 -39 14 8 107 17
205 19 88 2 103 0 114 -16 11 -15 13 -270 12 -1366 -1 -741 -2 -1390 -2 -1442
-1 -52 0 -138 1 -190 4 -130 5 -126 -31 -143 -32 -15 -85 -16 -292 -3 -78 4
-87 1 -114 -41 -17 -25 -21 -38 -13 -46 6 -6 11 -23 11 -38 0 -17 6 -28 18
-31 24 -5 1370 -1 1407 5 17 2 44 7 60 11 17 3 41 8 54 11 26 5 35 11 37 26 1
5 2 15 3 22 1 7 7 5 16 -7 13 -18 14 -17 21 8 8 32 -15 61 -65 82 -54 23 -79
24 -147 8 -35 -8 -107 -16 -159 -18 -87 -4 -95 -2 -107 18 -11 17 -13 103 -11
431 1 226 3 430 4 455 0 25 -2 101 -7 170 -8 131 -8 145 -1 305 5 136 25 163
113 160 87 -4 133 -16 170 -46 21 -17 49 -29 65 -29 16 0 32 0 37 -1 13 -1 52
-42 52 -56 0 -7 6 -13 13 -13 28 0 93 -80 140 -169 46 -90 107 -256 107 -294
0 -10 13 -32 30 -48 25 -26 36 -30 76 -28 57 3 84 24 86 64 0 17 -2 154 -6
305 -6 263 -7 503 -3 875 l2 169 -35 24 c-82 55 -168 -24 -186 -169 -7 -58
-21 -82 -128 -224 -92 -122 -91 -121 -167 -124 -9 -1 -39 -16 -67 -35 -60 -42
-110 -56 -208 -60 -73 -3 -74 -3 -81 23 -4 14 -7 100 -6 191 2 243 2 548 1
875 -1 160 1 304 4 320 10 51 26 82 44 89 10 4 151 6 313 5 279 -1 383 -10
425 -36 6 -4 16 -8 21 -9 57 -9 74 -14 98 -23 35 -14 103 -60 144 -98 16 -15
50 -44 74 -63 24 -19 46 -38 47 -42 2 -5 9 -14 16 -21 38 -38 130 -190 132
-219 1 -9 12 -38 26 -65 14 -26 49 -109 78 -183 29 -74 57 -139 61 -144 17
-19 102 -16 136 5 l32 20 -4 142 c-3 78 -7 264 -10 412 -5 271 -19 395 -51
456 -17 34 -54 41 -131 25 -63 -13 -195 -13 -298 -1 -78 9 -234 13 -241 6z
m-1941 -3400 c5 0 5 -6 2 -12 -4 -5 -19 -7 -35 -4 -25 5 -27 4 -25 -19 4 -33
-11 -43 -24 -17 -27 50 -4 64 82 52z m147 -16 c0 -8 -4 -15 -8 -15 -5 0 -9 7
-9 15 0 8 4 15 9 15 4 0 8 -7 8 -15z m1170 -1 c0 -2 -7 -4 -15 -4 -8 0 -15 4
-15 10 0 5 7 7 15 4 8 -4 15 -8 15 -10z m-1196 -56 c-5 -8 -44 -12 -44 -4 0 2
-3 11 -6 20 -5 13 -1 13 25 3 16 -6 28 -15 25 -19z m1110 17 c-7 -17 -20 -20
-28 -6 -7 10 3 21 20 21 8 0 11 -6 8 -15z m-814 -5 c0 -5 -7 -7 -15 -4 -8 4
-15 8 -15 10 0 2 7 4 15 4 8 0 15 -4 15 -10z"/>
<path d="M5917 4554 c-1 -1 -56 -5 -122 -9 -65 -3 -122 -8 -126 -11 -4 -2 -10
-1 -13 4 -3 5 -121 7 -263 6 -142 -2 -276 -3 -298 -2 -22 0 -80 0 -130 -1
-205 -3 -730 -2 -861 3 -160 6 -208 -5 -237 -54 -24 -40 -22 -85 5 -105 21
-14 24 -14 39 6 20 27 50 20 42 -9 -6 -24 18 -32 62 -20 17 4 80 10 142 12 97
4 114 3 132 -13 22 -19 22 -18 20 -431 0 -144 0 -113 0 -520 1 -431 0 -956 -1
-1380 0 -195 0 -454 1 -576 l1 -220 -33 -16 c-32 -15 -53 -16 -276 -5 -94 5
-101 3 -129 -38 -19 -27 -21 -37 -13 -54 6 -11 11 -29 11 -40 0 -12 3 -21 8
-22 41 -6 1338 -4 1389 3 145 17 173 25 173 49 0 11 7 19 16 19 11 0 14 -5 9
-17 -5 -14 -3 -15 6 -6 18 18 19 60 1 77 -26 23 -104 53 -132 51 -14 -2 -54
-8 -90 -14 -35 -7 -102 -14 -148 -15 -76 -3 -84 -2 -97 18 -10 17 -12 105 -9
461 2 242 4 445 4 450 1 6 -2 64 -6 130 -7 119 -7 143 -4 305 3 170 33 194
210 165 19 -4 52 -20 73 -37 21 -16 45 -27 53 -24 7 3 14 1 14 -4 0 -5 9 -7
21 -5 21 4 69 -34 69 -55 0 -5 6 -10 13 -10 25 0 88 -73 127 -149 40 -76 89
-189 95 -220 9 -46 37 -130 49 -147 19 -25 127 -27 151 -4 18 19 18 7 10 305
-6 224 -7 709 -1 960 1 61 -2 118 -6 127 -10 21 -59 48 -87 48 -28 0 -89 -56
-107 -98 -8 -19 -17 -59 -21 -89 -6 -58 -23 -87 -129 -228 -56 -75 -91 -114
-102 -116 -4 -1 -17 -3 -28 -4 -47 -5 -79 -17 -108 -42 -49 -41 -85 -51 -213
-58 -59 -3 -62 -2 -71 24 -5 14 -7 148 -6 296 2 149 3 313 3 365 -4 278 -2
700 3 732 3 20 13 49 22 63 l18 27 326 -4 c310 -4 330 -5 387 -26 33 -13 76
-24 95 -26 52 -5 132 -53 220 -133 14 -12 42 -37 63 -54 62 -52 173 -220 184
-278 2 -13 14 -42 26 -65 13 -22 42 -90 65 -151 61 -155 70 -175 84 -177 42
-5 108 -4 108 2 0 4 9 10 19 13 13 3 21 17 25 43 6 38 0 262 -8 334 -3 19 -5
136 -6 260 -2 124 -6 234 -10 245 -4 11 -10 39 -13 62 -9 59 -32 109 -53 115
-21 5 -58 3 -124 -8 -59 -10 -155 -9 -260 1 -80 7 -248 13 -253 9z m-497
-3388 c0 -3 -4 -8 -10 -11 -5 -3 -10 -1 -10 4 0 6 5 11 10 11 6 0 10 -2 10 -4z
m-1455 -21 c0 -5 -11 -10 -25 -10 -20 0 -26 -6 -28 -27 -2 -16 -7 -28 -12 -28
-14 0 -24 62 -11 69 17 11 76 7 76 -4z m155 -5 c0 -5 -4 -10 -10 -10 -5 0 -10
5 -10 10 0 6 5 10 10 10 6 0 10 -4 10 -10z m1170 -6 c0 -2 -7 -4 -15 -4 -8 0
-15 4 -15 10 0 5 7 7 15 4 8 -4 15 -8 15 -10z m-91 -40 c-6 -7 -15 -11 -21 -8
-5 3 -4 12 3 20 6 7 15 11 21 8 5 -3 4 -12 -3 -20z m-1109 -16 c0 -12 -38 -10
-45 2 -12 19 5 30 25 17 11 -6 20 -15 20 -19z m300 12 c0 -5 -7 -7 -15 -4 -8
4 -12 10 -9 15 6 11 24 2 24 -11z"/>
<path d="M2121 653 c7 -12 15 -20 18 -17 3 2 -3 12 -13 22 -17 16 -18 16 -5
-5z"/>
<path d="M2245 660 c-16 -4 -24 -8 -17 -9 8 -1 11 -19 10 -64 -3 -61 -2 -63
19 -59 14 3 20 9 15 16 -10 16 -10 88 0 109 5 9 7 16 6 16 -2 -1 -16 -5 -33
-9z"/>
<path d="M2716 659 c3 -5 10 -7 15 -4 25 16 31 -92 6 -125 -6 -8 0 -5 15 8 42
38 41 91 -1 117 -22 13 -42 15 -35 4z"/>
<path d="M2808 662 c-3 -6 -3 -20 1 -94 1 -17 9 -32 22 -38 18 -10 19 -9 11 7
-5 10 -9 41 -8 70 1 35 -2 54 -11 57 -7 3 -14 2 -15 -2z"/>
<path d="M3200 660 c-13 -8 -13 -10 2 -10 9 0 18 -6 21 -12 2 -7 8 -10 13 -5
14 13 -19 38 -36 27z"/>
<path d="M3270 662 c-11 -5 -15 -24 -15 -70 0 -34 3 -62 8 -62 4 0 10 0 14 0
4 0 8 31 8 70 1 38 1 70 1 69 -1 0 -8 -3 -16 -7z"/>
<path d="M4034 659 c-4 -6 -7 -34 -7 -63 0 -28 -4 -54 -9 -57 -6 -4 4 -8 20
-11 26 -4 29 -2 22 11 -4 9 -7 40 -6 69 2 52 -6 73 -20 51z"/>
<path d="M4329 662 c-1 -4 -1 -32 0 -62 1 -39 6 -59 18 -67 23 -18 38 -16 20
1 -9 9 -13 34 -13 70 1 36 -3 57 -11 61 -7 2 -13 1 -14 -3z"/>
<path d="M4425 660 c-4 -6 -12 -7 -18 -3 -8 5 -8 2 0 -9 7 -8 11 -18 8 -21 -3
-4 -2 -4 3 -1 4 3 7 9 7 12 0 4 4 13 8 20 5 6 6 12 3 12 -3 0 -8 -5 -11 -10z"/>
<path d="M4503 663 c-9 -3 -13 -28 -13 -73 0 -63 1 -68 20 -63 13 3 17 10 12
17 -4 6 -7 37 -6 69 1 31 1 57 0 56 0 0 -7 -3 -13 -6z"/>
<path d="M4585 617 c2 -29 3 -59 4 -68 1 -17 41 -34 41 -18 0 5 -5 9 -11 9 -6
0 -9 21 -8 56 2 42 -1 58 -13 65 -13 7 -15 0 -13 -44z"/>
<path d="M4715 659 c-11 -4 -14 -8 -7 -8 9 -1 11 -18 10 -61 -2 -33 0 -60 4
-60 5 0 11 0 16 0 8 0 11 130 2 135 -3 1 -14 -1 -25 -6z"/>
<path d="M4849 664 c-1 -5 -1 -36 0 -68 1 -39 -3 -62 -11 -69 -9 -6 -8 -7 5
-3 10 3 22 6 26 6 5 0 8 12 7 28 -1 20 3 26 17 24 10 -2 17 3 17 13 0 11 -6
15 -18 11 -21 -7 -26 19 -8 44 5 8 6 12 2 8 -5 -4 -15 -3 -23 3 -7 6 -14 8
-14 3z"/>
<path d="M1915 595 c0 -52 3 -65 15 -63 22 5 22 128 0 128 -12 0 -15 -13 -15
-65z"/>
<path d="M1966 652 c20 -13 24 -41 7 -50 -13 -8 -13 -10 2 -16 12 -4 15 -13
11 -31 -7 -27 5 -33 23 -11 12 14 5 46 -10 46 -5 0 -4 9 3 19 14 23 -3 51 -31
51 -10 0 -12 -3 -5 -8z"/>
<path d="M2036 638 c1 -13 3 -40 3 -60 1 -27 7 -40 22 -49 17 -9 20 -8 13 2
-12 20 -12 113 0 121 6 4 -1 8 -15 8 -21 0 -25 -4 -23 -22z"/>
<path d="M2168 643 c5 -10 7 -39 6 -64 -2 -43 0 -47 22 -52 19 -3 22 -1 13 9
-6 7 -9 30 -8 51 2 21 0 44 -4 50 -4 6 -1 14 5 16 7 3 0 6 -15 6 -23 1 -26 -2
-19 -16z"/>
<path d="M2345 593 c0 -63 2 -68 22 -68 12 0 19 3 15 7 -5 5 -7 35 -5 68 2 51
0 60 -15 60 -14 0 -17 -10 -17 -67z"/>
<path d="M2408 650 c21 -9 27 -24 22 -65 -4 -36 -5 -40 -15 -47 -6 -5 -6 -8 2
-8 43 0 59 87 21 114 -12 9 -29 16 -38 15 -9 0 -6 -4 8 -9z"/>
<path d="M2563 638 c27 -36 38 -69 32 -89 -5 -14 -1 -19 15 -19 17 0 19 4 14
24 -3 13 0 35 7 48 11 20 10 22 -3 10 -13 -10 -17 -9 -23 5 -5 10 -9 23 -9 28
-1 6 -12 12 -25 13 -24 4 -24 3 -8 -20z"/>
<path d="M2648 653 c7 -3 16 -2 19 1 4 3 -2 6 -13 5 -11 0 -14 -3 -6 -6z"/>
<path d="M2672 635 c-17 -36 -15 -59 6 -84 17 -22 17 -20 17 43 0 71 -5 80
-23 41z"/>
<path d="M2880 656 c0 -2 7 -7 16 -10 8 -3 12 -2 9 4 -6 10 -25 14 -25 6z"/>
<path d="M2942 601 c1 -32 -2 -63 -6 -69 -4 -6 2 -8 15 -5 18 5 20 12 18 57
-1 29 1 58 5 64 5 8 0 12 -12 12 -18 0 -20 -7 -20 -59z"/>
<path d="M2995 652 c15 -10 12 -41 -5 -52 -10 -6 -11 -10 -2 -10 6 0 12 -11
12 -24 0 -13 7 -29 15 -36 13 -11 15 -8 15 18 0 17 -6 32 -12 35 -10 3 -9 9 4
23 19 22 8 54 -20 54 -10 0 -13 -3 -7 -8z"/>
<path d="M3139 645 c5 -5 8 -33 7 -62 -1 -35 2 -54 11 -57 13 -5 14 1 17 96 1
33 -1 37 -21 36 -14 -2 -19 -6 -14 -13z"/>
<path d="M3319 651 c7 -5 11 -14 7 -20 -4 -6 -2 -9 6 -6 8 3 25 -14 41 -40 37
-58 47 -63 47 -25 0 17 -4 29 -9 25 -5 -3 -12 4 -16 15 -3 11 -10 20 -15 20
-4 0 -10 9 -13 20 -4 14 -13 20 -34 20 -20 0 -24 -3 -14 -9z"/>
<path d="M3408 638 c2 -10 6 -18 7 -18 1 0 5 8 7 18 3 11 0 19 -7 19 -7 0 -10
-8 -7 -19z"/>
<path d="M3489 657 c-1 -4 -2 -11 -3 -16 0 -5 -4 -13 -8 -17 -4 -4 0 -13 10
-20 15 -12 15 -15 2 -24 -13 -8 -13 -10 3 -10 10 0 17 -8 17 -20 0 -13 7 -20
19 -20 19 0 18 3 -6 63 -26 63 -32 75 -34 64z"/>
<path d="M3580 645 c0 -8 4 -15 10 -15 5 0 25 -22 42 -50 18 -27 35 -50 38
-50 3 0 5 16 6 36 0 19 -2 30 -7 23 -5 -8 -11 -5 -19 10 -28 53 -70 81 -70 46z"/>
<path d="M3650 656 c0 -2 7 -7 16 -10 8 -3 12 -2 9 4 -6 10 -25 14 -25 6z"/>
<path d="M3720 647 c-28 -22 -30 -69 -4 -98 23 -25 39 -24 21 1 -10 15 -12 32
-6 63 4 23 7 43 6 44 -1 1 -9 -4 -17 -10z"/>
<path d="M3787 640 c10 -11 18 -20 18 -20 0 0 1 9 2 20 1 14 -4 20 -18 20 -18
0 -18 -1 -2 -20z"/>
<path d="M3829 647 c-5 -110 -4 -116 18 -120 14 -3 20 0 16 6 -10 16 -11 90
-2 107 5 12 2 16 -12 17 -10 1 -19 -4 -20 -10z"/>
<path d="M3932 640 c-6 -16 -6 -27 1 -31 5 -4 7 -14 4 -23 -4 -11 -1 -16 9
-16 11 0 15 -6 11 -19 -3 -11 1 -22 9 -25 24 -9 24 11 0 75 -23 60 -25 62 -34
39z"/>
<path d="M4206 652 c6 -4 10 -33 9 -64 -1 -50 1 -58 16 -58 15 0 17 6 13 30
-7 31 3 39 23 19 9 -9 12 -7 10 9 -1 13 -7 21 -15 19 -18 -3 -25 35 -9 45 7 4
-3 8 -23 8 -19 0 -30 -4 -24 -8z"/>
<path d="M4282 640 c7 -11 16 -16 21 -11 12 12 0 31 -19 31 -12 0 -12 -3 -2
-20z"/>
<path d="M4446 645 c-3 -8 -2 -15 3 -15 5 0 14 7 21 15 10 12 10 15 -3 15 -8
0 -17 -7 -21 -15z"/>
<path d="M4542 640 c7 -11 16 -16 21 -11 12 12 0 31 -19 31 -12 0 -12 -3 -2
-20z"/>
<path d="M4668 653 c7 -3 16 -2 19 1 4 3 -2 6 -13 5 -11 0 -14 -3 -6 -6z"/>
<path d="M4782 634 c2 -15 -3 -29 -9 -31 -8 -3 -9 -10 -3 -21 5 -9 11 -25 14
-34 3 -10 13 -18 23 -17 11 0 13 3 5 6 -6 2 -9 9 -6 14 3 6 -1 18 -10 28 -16
17 -16 19 -1 25 19 7 17 47 -2 54 -9 2 -12 -6 -11 -24z"/>
<path d="M4910 645 c7 -8 16 -15 20 -15 3 0 7 7 7 15 0 8 -9 15 -20 15 -16 0
-17 -3 -7 -15z"/>
<path d="M4672 614 c-1 -13 0 -24 2 -24 7 0 14 40 7 44 -4 3 -8 -6 -9 -20z"/>
<path d="M2890 621 c0 -6 4 -13 10 -16 6 -3 7 1 4 9 -7 18 -14 21 -14 7z"/>
<path d="M3197 613 c-4 -3 -7 -15 -7 -26 0 -25 13 -14 17 13 3 21 1 24 -10 13z"/>
<path d="M3321 594 c0 -11 3 -14 6 -6 3 7 2 16 -1 19 -3 4 -6 -2 -5 -13z"/>
<path d="M3582 590 c0 -14 2 -19 5 -12 2 6 2 18 0 25 -3 6 -5 1 -5 -13z"/>
<path d="M4416 593 c-6 -14 -5 -15 5 -6 7 7 10 15 7 18 -3 3 -9 -2 -12 -12z"/>
<path d="M3459 573 c-5 -14 -8 -30 -6 -36 1 -5 8 7 14 27 13 42 7 49 -8 9z"/>
<path d="M2118 557 c-3 -19 -2 -25 4 -19 6 6 8 18 6 28 -3 14 -5 12 -10 -9z"/>
<path d="M3903 565 c0 -8 4 -12 9 -9 5 3 6 10 3 15 -9 13 -12 11 -12 -6z"/>
<path d="M2308 548 c-10 -9 -14 -19 -10 -22 13 -8 34 10 30 25 -2 12 -6 11
-20 -3z"/>
<path d="M3323 549 c-2 -23 3 -25 10 -4 4 8 3 16 -1 19 -4 3 -9 -4 -9 -15z"/>
<path d="M3783 546 l-22 -23 22 4 c14 3 23 12 24 24 2 24 3 24 -24 -5z"/>
<path d="M4097 550 c-15 -15 -16 -18 -3 -23 9 -4 17 2 21 14 9 27 4 30 -18 9z"/>
<path d="M4922 549 c-15 -24 -13 -32 7 -20 7 5 11 16 9 25 -2 14 -5 13 -16 -5z"/>
<path d="M4666 543 c-6 -14 -5 -15 5 -6 7 7 10 15 7 18 -3 3 -9 -2 -12 -12z"/>
<path d="M2875 540 c-16 -7 -17 -9 -3 -9 9 -1 20 4 23 9 7 11 7 11 -20 0z"/>
<path d="M3576 535 c-3 -8 -1 -15 4 -15 6 0 10 7 10 15 0 8 -2 15 -4 15 -2 0
-6 -7 -10 -15z"/>
<path d="M3888 533 c7 -3 16 -2 19 1 4 3 -2 6 -13 5 -11 0 -14 -3 -6 -6z"/>
</g>
</svg>
